# xmcd CD database file
#
# Track frame offsets:
#	150
#	21988
#	37546
#	57781
#	76213
#	92991
#	113979
#	127291
#	145463
#	156912
#	169160
#	184103
#	203943
#	221485
#
# Disc length: 3130 seconds
#
# Revision: 0
# Processed by: cddbd v1.5PL3 Copyright (c) Steve Scherf et al.
# Submitted via: CDex 1.51
#
DISCID=c70c380e
DTITLE=Vince Junior - Heading Home
DYEAR=2003
DGENRE=Blues
TTITLE0=Heading Home
TTITLE1=Oh The Moon Daddy
TTITLE2=Don't Cut Me Down
TTITLE3=If I Had
TTITLE4=End Of It All
TTITLE5=Phoebe Snow And Me
TTITLE6=Up In Your Tree
TTITLE7=Very Much Longer
TTITLE8=I Got Hope
TTITLE9=Lights Leak
TTITLE10=Last Man
TTITLE11=Follow You Home
TTITLE12=Classic Love
TTITLE13=Island Song
EXTD=YEAR: 2003
EXTT0=
EXTT1=
EXTT2=
EXTT3=
EXTT4=
EXTT5=
EXTT6=
EXTT7=
EXTT8=
EXTT9=
EXTT10=
EXTT11=
EXTT12=
EXTT13=
PLAYORDER=
